<svg width="38" height="41" viewBox="0 0 38 41" fill="none" xmlns="http://www.w3.org/2000/svg">
<path d="M11.3689 29.1615C10.4017 29.6951 9.18516 29.3435 8.65163 28.3763L6.54571 24.5588C6.01217 23.5916 6.36371 22.375 7.33088 21.8415L20.5304 14.5601C21.4975 14.0266 22.7141 14.3781 23.2476 15.3453L25.3535 19.1629C25.8871 20.1301 25.5355 21.3466 24.5684 21.8802L11.3689 29.1615Z" fill="#955B03"/>
<path d="M5.7893 18.9318C4.82213 19.4653 3.60557 19.1138 3.07204 18.1466L0.966115 14.329C0.432585 13.3619 0.78412 12.1453 1.75129 11.6118L21.0495 0.966084C22.0167 0.432554 23.2333 0.784088 23.7668 1.75126L25.8727 5.56883C26.4063 6.536 26.0547 7.75256 25.0875 8.28609L5.7893 18.9318Z" fill="#7E241C"/>
<path d="M16.9504 39.3914C15.9833 39.9249 14.7667 39.5734 14.2332 38.6062L12.1272 34.7886C11.5937 33.8215 11.9453 32.6049 12.9124 32.0714L32.2107 21.4257C33.1778 20.8921 34.3944 21.2437 34.9279 22.2109L37.0339 26.0284C37.5674 26.9956 37.2159 28.2122 36.2487 28.7457L16.9504 39.3914Z" fill="#4F4F4F"/>
</svg>
